<?xml version="1.0" standalone="no"?>
<!DOCTYPE svg PUBLIC "-//W3C//DTD SVG 20010904//EN"
 "http://www.w3.org/TR/2001/REC-SVG-20010904/DTD/svg10.dtd">
<svg version="1.0" xmlns="http://www.w3.org/2000/svg"
 width="512.000000pt" height="512.000000pt" viewBox="0 0 512.000000 512.000000"
 preserveAspectRatio="xMidYMid meet">
<metadata>
Created by potrace 1.11, written by Peter Selinger 2001-2013
</metadata>
<g transform="translate(0.000000,512.000000) scale(0.100000,-0.100000)"
fill="#000000" stroke="none">
<path d="M3100 3984 c-81 -24 -109 -58 -248 -301 -71 -126 -140 -246 -152
-268 -12 -22 -39 -69 -60 -105 -20 -36 -49 -85 -62 -110 -14 -25 -44 -77 -67
-117 -22 -39 -49 -87 -59 -105 -63 -112 -414 -728 -457 -803 -28 -49 -64 -112
-79 -140 -16 -27 -67 -117 -114 -200 -119 -210 -122 -214 -154 -270 -56 -97
-71 -138 -71 -196 0 -61 26 -130 64 -171 89 -95 255 -96 344 -1 14 16 57 82
94 148 55 96 222 390 378 665 11 19 29 51 40 70 12 19 68 118 125 220 203 358
670 1178 720 1265 49 85 61 118 64 178 3 66 -21 134 -64 180 -57 60 -159 86
-242 61z"/>
<path d="M852 3475 c-47 -22 -78 -51 -333 -316 -35 -37 -149 -154 -252 -262
-104 -107 -199 -209 -211 -226 -51 -69 -59 -188 -17 -267 21 -42 49 -72 261
-291 74 -77 218 -226 319 -331 104 -108 199 -198 220 -208 46 -22 125 -29 177
-15 97 26 174 135 174 247 0 93 -30 138 -221 337 -92 94 -210 217 -263 272
-52 55 -96 105 -96 111 0 6 12 22 28 36 15 13 113 114 217 222 105 109 213
222 241 251 65 67 87 114 92 195 11 186 -173 320 -336 245z"/>
<path d="M4125 3491 c-147 -37 -231 -186 -185 -327 18 -56 41 -86 156 -204 57
-58 130 -134 164 -170 34 -36 104 -109 156 -162 52 -53 94 -100 94 -105 0 -4
-44 -54 -98 -109 -363 -378 -439 -460 -457 -492 -29 -54 -28 -182 2 -238 57
-108 176 -157 297 -122 45 13 98 64 476 457 107 112 226 235 263 274 38 39 79
92 91 117 41 81 30 199 -25 268 -11 15 -109 119 -217 231 -109 113 -249 258
-312 324 -194 202 -221 227 -256 242 -44 18 -112 26 -149 16z"/>
</g>
</svg>
