<?xml version="1.0" encoding="UTF-8" standalone="no"?>
<svg preserveAspectRatio="xMinYMin meet" xmlns="http://www.w3.org/2000/svg" xmlns:xlink="http://www.w3.org/1999/xlink" version="1.1" viewBox="0 0 256 256">
<path d="m0 223c0 18 14.8 33 33 33h190c18 0 33-15 33-33v-190c0-18.2-15-33-33-33h-190c-18.2 0-33 14.8-33 33v190z" fill="#FFF"/>
<path d="m106 113v-36h32c3 0 6 0.2 9 0.7 3 0.6 5 1.5 7 2.8 3 1.3 4 3.1 6 5.4 1 2.3 2 5.3 2 8.9 0 6.2-2 11.2-6 14.2s-9 4-15 4h-35zm-33.9-62.5v156h74.9c7 0 14-1 20-3 7-2 13-5 18-8 5-4 9-8 12-14s5-13 5-20c0-10-2-18-7-25s-12-12-22-15c7-3 13-7 16-13 4-5 6-11.3 6-19.1 0-7.2-2-13.3-4-18.2s-6-8.9-10-11.8c-5-3-10-5.1-16-6.4s-13-2-20-2h-72.9zm33.9 128v-43h37c8 0 14 2 18 6 5 3 7 9 7 17 0 4-1 7-2 10-2 2-3 4-6 6-2 1-5 2-8 3s-6 1-9 1h-37z" fill="#008080"/>
</svg>