<?xml version="1.0" encoding="UTF-8" standalone="no"?>
<svg xmlns:rdf="http://www.w3.org/1999/02/22-rdf-syntax-ns#" xmlns="http://www.w3.org/2000/svg" xml:space="preserve" version="1.1" xmlns:cc="http://creativecommons.org/ns#" viewBox="0 0 122.52 122.52" xmlns:dc="http://purl.org/dc/elements/1.1/"><g transform="matrix(1.33 0 0 -1.33 0 123)"><g transform="scale(.1)"><path d="m902 500-402 402c-23.1 23.1-60.6 23.1-83.7 0l-83-84 106-105c24.6 8.29 52.7 2.73 72.3-16.8 19.7-19.7 25.2-48.1 16.7-72.8l102-102c24.6 8.5 53.1 3 72.8-16.7 27.5-27.5 27.5-72.1 0-99.6s-72.1-27.5-99.6 0c-20.7 20.7-25.8 51.1-15.3 76.6l-95 95v-251c6.7-3.32 13-7.74 18.6-13.3 27.5-27.5 27.5-72.1 0-99.6s-72.1-27.5-99.6 0-27.5 72.1 0 99.6c6.8 6.79 14.7 11.9 23.1 15.4v252c-8.4 3.44-16.2 8.53-23.1 15.4-20.8 20.8-25.8 51.4-15.2 77l-105 105-275-275c-23.1-23.1-23.1-60.6 0-83.7l402-401c23.1-23.1 60.6-23.1 83.7 0l399 400c23.1 23.1 23.1 60.6 0 83.7" fill="#fff"/></g></g></svg>