<?xml version="1.0" encoding="UTF-8" standalone="no"?>
<svg xmlns="http://www.w3.org/2000/svg" viewBox="0 0 135 135">
<path d="m128 130s9.2 0.1 15.1 0.1h-15z" fill="#FFF"/>
<path d="m20.5 35.2c-12.7 18.3-5.3 43.8 9.6 58.4 4 4 8.5 7.4 13.5 10.2 4.6 2.6 9.9 4.9 15.2 5.7 8.6 1.4 17.5 1.4 25.8-1.1 10.7-3.1 19.9-10.1 25.9-19.5 1.2-1.9 2.3-3.8 3.1-5.9-12.5 16.3-36.7 18.3-54.7 11.1-19.9-8-35.8-27.6-35.7-49.5 0-6.3 1.4-12.6 4.4-18.3" fill="#FFF"/>
<path d="m48.5 24.3c-6.1 8.7-6.2 20.4-2 29.9 4.4 10.1 13 18 23.2 22.1 2.6 1 5.1 1.7 7.9 2 2.3 0.3 4.7 0.4 7.1 0.3 3.9-0.1 7.8-0.7 11.6-1.9 5.5-1.9 10.5-5.2 14.3-9.7 2.3-2.8 4.4-6.1 5.5-9.5-5.5 8-15 12.2-24.6 12.4-11 0.2-21.8-4.4-29.6-12-10.7-10.4-16.1-27.5-8-41.1" fill="#FFF"/>
<path d="m72.1 16.1c-6.3 9.3-2.7 21.5 5.4 28.4 6.9 5.9 17.2 8.3 25.7 4.5 2.9-1.3 5.3-3.3 7.2-5.8 1.1-1.4 1.8-3 2.8-4.5-5.8 8.4-17.8 7.9-26.1 3.8-8.4-4.4-15.3-14.3-13.9-24.3 0.3-2.1 1-4.2 2-6.1" fill="#FFF"/>
</svg>