<?xml version="1.0" encoding="UTF-8" standalone="no"?>
<svg xmlns:rdf="http://www.w3.org/1999/02/22-rdf-syntax-ns#" xmlns="http://www.w3.org/2000/svg" xml:space="preserve" viewBox="0 0 190 190" version="1.1" enable-background="new 0 0 193 208" xmlns:cc="http://creativecommons.org/ns#" xmlns:dc="http://purl.org/dc/elements/1.1/"><title>Mocha Logo</title><path id="XMLID_229_" d="m169 144-68.7 39.7c-2.96 1.72-6.58 1.72-9.54 0l-68-40c-2.96-1.72-4.77-4.87-4.77-8.21v-79.4c0-3.44 1.81-6.49 4.77-8.21l68.7-40c2.96-1.72 6.58-1.72 9.54 0l68.7 39.7c2.96 1.72 4.77 4.87 4.77 8.21v79.4c-0.0954 3.34-1.91 6.49-4.77 8.21z" fill-rule="evenodd" clip-rule="evenodd" fill="#fff"/><path id="XMLID_262_" fill="#008080" d="m95.9 22c0.954 0 1.81 0.286 2.67 0.763l59.4 34.3c1.62 0.954 2.67 2.77 2.67 4.68v68.5c0 1.91-1.05 3.72-2.67 4.68l-59.4 34.3c-0.859 0.477-1.72 0.763-2.67 0.763-0.954 0-1.91-0.286-2.67-0.763l-59.4-34c-1.62-0.954-2.67-2.77-2.67-4.68v-68.5c0-1.91 1.05-3.72 2.67-4.68l59.3-34c0.859-0.477 1.81-0.763 2.67-0.763m0-2.86c-1.43 0-2.86 0.382-4.1 1.15l-59.4 34.4c-2.58 1.43-4.1 4.2-4.1 7.06v68.5c0 2.96 1.53 5.63 4.1 7.06l59.4 34.3c1.24 0.763 2.67 1.15 4.1 1.15s2.86-0.382 4.1-1.15l59.4-34.3c2.58-1.43 4.1-4.2 4.1-7.06v-68.5c0-2.96-1.53-5.63-4.1-7.06l-59-34.1c-1.2-0.7-2.7-1.1-4.1-1.1z"/><g id="XMLID_228_" transform="matrix(.954 0 0 .954 5.49 -4.76)"><g id="XMLID_223_"><g id="XMLID_295_"><path fill="#008080" d="m104 69.6c0-0.5-0.4-1-1-1h-9.4-9.4c-0.5 0-1 0.4-1 1 0 3.4 0.5 15.1 5.5 20.8 0.2 0.2 0.4 0.3 0.7 0.3h8.4c0.3 0 0.5-0.1 0.7-0.3 5-5.6 5.5-17.3 5.5-20.8zm-7.4 18.2h-5.9c-0.3 0-0.5-0.1-0.7-0.3-3.4-4-3.8-12-3.9-14.8 0-0.5 0.4-1 1-1h6.6 6.6c0.5 0 1 0.4 1 1 0 2.8-0.5 10.7-3.9 14.8-0.3 0.2-0.5 0.3-0.8 0.3z"/></g></g><path id="XMLID_225_" fill="#008080" d="m95.1 66.6s3.6-2.1 1.4-5.9c-1.3-2-1.9-3.7-1.4-4.4-1.3 1.6-3.5 3.3-1.1 6.9 0.8 0.9 1.2 2.8 1.1 3.4z"/><path id="XMLID_224_" fill="#008080" d="m91.1 66.9s2.4-1.4 0.9-4c-0.9-1.3-1.3-2.5-0.9-2.9-0.9 1.1-2.3 2.2-0.7 4.7 0.5 0.5 0.7 1.8 0.7 2.2z"/><path id="XMLID_227_" fill="#008080" d="m99.3 78.5c-0.4 2.7-1.2 5.8-2.9 7.8-0.2 0.2-0.4 0.3-0.6 0.3h-5c-0.2 0-0.5-0.1-0.6-0.3-1.2-1.5-2-3.5-2.5-5.6 0 0 5.8 0.8 9.1-0.4 2.4-0.9 2.5-1.8 2.5-1.8z"/></g><g fill="#008080" transform="matrix(.954 0 0 .954 5.49 -4.76)"><path d="m33.6 94.7h3.7l6.1 9.4 6.1-9.4h3.7v20h-3.5v-14.3l-6.3 9.4h-0.1l-6.2-9.3v14.3h-3.5v-20.1z"/><path d="m71.3 115c-1.5 0-2.9-0.3-4.2-0.8s-2.4-1.3-3.3-2.2-1.6-2-2.1-3.3c-0.5-1.2-0.8-2.6-0.8-4v-0.1c0-1.4 0.3-2.7 0.8-4 0.5-1.2 1.2-2.3 2.2-3.3 0.9-0.9 2-1.7 3.3-2.2 1.3-0.6 2.7-0.8 4.2-0.8s2.9 0.3 4.2 0.8 2.4 1.3 3.3 2.2 1.6 2 2.1 3.3c0.5 1.2 0.8 2.6 0.8 4v0.1c0 1.4-0.3 2.7-0.8 4-0.5 1.2-1.2 2.3-2.2 3.3-0.9 0.9-2 1.7-3.3 2.2-1.3 0.6-2.7 0.8-4.2 0.8zm0-3.2c1 0 1.9-0.2 2.7-0.6s1.5-0.9 2.1-1.5 1-1.4 1.4-2.2c0.3-0.9 0.5-1.8 0.5-2.7v-0.1c0-1-0.2-1.9-0.5-2.8s-0.8-1.6-1.4-2.3c-0.6-0.6-1.3-1.1-2.1-1.5s-1.7-0.6-2.7-0.6-1.9 0.2-2.7 0.6-1.5 0.9-2.1 1.5-1 1.4-1.4 2.2c-0.3 0.9-0.5 1.8-0.5 2.7v0.1c0 1 0.2 1.9 0.5 2.8s0.8 1.6 1.4 2.3c0.6 0.6 1.3 1.1 2.1 1.5s1.8 0.6 2.7 0.6z"/><path d="m98.7 115c-1.5 0-2.8-0.3-4-0.8s-2.3-1.3-3.2-2.2-1.6-2-2.1-3.3-0.8-2.6-0.8-4v-0.1c0-1.4 0.3-2.8 0.8-4s1.2-2.3 2.1-3.3c0.9-0.9 2-1.7 3.3-2.2s2.6-0.8 4.2-0.8c0.9 0 1.7 0.1 2.5 0.2 0.8 0.2 1.4 0.4 2.1 0.6 0.6 0.3 1.2 0.6 1.7 1s1 0.8 1.5 1.3l-2.3 2.6c-0.8-0.7-1.6-1.3-2.5-1.8s-1.9-0.7-3.1-0.7c-1 0-1.8 0.2-2.6 0.6s-1.5 0.9-2.1 1.5-1 1.4-1.4 2.2c-0.3 0.9-0.5 1.8-0.5 2.7v0.1c0 1 0.2 1.9 0.5 2.8s0.8 1.6 1.4 2.3c0.6 0.6 1.3 1.2 2.1 1.5s1.7 0.6 2.6 0.6c1.2 0 2.3-0.2 3.1-0.7s1.7-1.1 2.6-1.9l2.3 2.3c-0.5 0.6-1 1-1.6 1.5s-1.2 0.8-1.8 1.1-1.4 0.6-2.1 0.7c-0.9 0.2-1.8 0.2-2.7 0.2z"/><path d="m114 94.7h3.5v8.3h9.6v-8.3h3.5v20h-3.5v-8.4h-9.6v8.4h-3.5v-20z"/><path d="m146 94.6h3.2l8.8 20.1h-3.7l-2-4.8h-9.4l-2.1 4.8h-3.6l8.8-20.1zm5 12.2-3.4-8-3.4 8h6.8z"/></g><rect id="XMLID_444_" height="1.05" width="122" y="111" x="35.2" fill="#008080"/><path id="XMLID_446_" fill="#008080" d="m157 74.8h-51.7c0 0.382-0.0954 0.668-0.0954 1.05h51.8v-1.05z"/><path id="XMLID_448_" fill="#008080" d="m35.2 74.8v1.05h48.8c0-0.382-0.0954-0.668-0.0954-1.05h-48.7z"/></svg>