<?xml version="1.0" encoding="UTF-8" standalone="no"?>
<!DOCTYPE svg  PUBLIC '-//W3C//DTD SVG 1.1//EN'  'http://www.w3.org/Graphics/SVG/1.1/DTD/svg11.dtd'>
<svg xmlns="http://www.w3.org/2000/svg" xml:space="preserve" version="1.1" y="0px" x="0px" xmlns:xlink="http://www.w3.org/1999/xlink" viewBox="0 0 1000 1000" enable-background="new 0 0 1000 1000">
<g fill="#FFF"><path d="m484 378c-0.4-93.8-1.3-285-6.5-368-1.6 1.8-2.9 3.4-4.7 5.4-31 24.1-189 157-202 427-10 214 128 354 186 403 14.3-61.7 32.6-221 27.7-382-1-12-1-43-1-85z"/><path d="m503 851c-2.9 13.2-6.3 25.9-9.8 34l-5.1 10.1c8.3 40.7 7.1 86.2 7.1 86.2l27.5 9.2s-5.6-72.6 2.2-108c0.4-1.6 0.7-2.9 1.1-4.5-6-7-16-18-22-27z"/><path d="m721 371c-54.1-238-181-315-195-345-0.4-0.4-0.9-1.1-1.1-1.8 3.1 61.2 4.9 170 5.8 353v0.4c0.2 40.2 0.2 72.2 0.7 83.1 3.1 106-3.4 200-9.4 261 0.7 59.4 21.7 111 34 120 4.9-4 10.7-8.9 17-14.7 0.7-0.4 1.1-0.7 1.1-0.7v-0.4c64-58 188-208 146-454z"/></g>
</svg>