<?xml version="1.0" encoding="UTF-8" standalone="no"?>
<svg preserveAspectRatio="xMinYMin meet" xmlns="http://www.w3.org/2000/svg" xmlns:xlink="http://www.w3.org/1999/xlink" version="1.1" viewBox="0 0 256 282">
<g fill="#FFF">
<path d="m117 3.58c6-3.98 16-4 22 0 35 19.8 70 39.5 105 59.3 7 3.7 11 11 11 18.6v118c0 8-4 16-11 19l-105 60c-7 4-16 3-23-1-11-6-21.1-12-31.6-18-2.1-2-4.5-3-6-5 1.3-1 3.7-2 5.6-2 4.4-2 8.4-4 12.4-6 1-1 2.3-1 3.2 0 9.4 5 17.4 10 26.4 15 2 2 4 0 6-1 34-19 68-38 103-58 1 0 2-2 1-3 1-39 0-79 0-118 1-1.5 0-2.9-2-3.6-34-19.5-69-39.1-104-58.7-1-0.9-3-0.9-4 0-34.8 19.6-69.5 39.2-104 58.8-1.7 0.6-2.7 2-2.5 3.6v118c-0.1 1 0.6 3 1.9 3 9.3 5 18.6 11 27.8 16 5.3 3 11.7 4 17.4 2 5.1-2 8.7-7 8.6-12v-117c-0.1-2 1.5-3.4 3.2-3.2 4.5-0.1 8.9-0.1 13.4 0 1.9-0.1 3.1 1.8 2.9 3.5 0 39.7 0.1 78.7 0 118 0 11-4.3 22-14 27-11.9 6-26.6 5-38.4-1-10.2-5-20-11-30-17-6.93-3-11.7-11-11.7-19l0.004-118c-0.073-8.2 4.51-15.7 11.3-19.4 34.9-19.6 69.7-39.3 105-59v-0.02z"/>
<path d="m147 86c15-1 31-0.6 45 6.9 11 5.7 17 18.1 17 29.1-1 2-2 3-4 3h-13c-2 0-3-2-3-4-1-5-4-11-10-13-8-5-17-4-26-4-7 0-14 1-19 4-4 3-6 9-4 14 1 3 5 4 8 5 19 5 38 5 56 11 8 3 15 8 17 15 4 11 2 23-5 32-6 7-15 10-24 12-11 3-24 3-35 2s-23-4-32-12c-7-6-11-16-10-26 0-1 1-3 3-2h13c2-1 3 1 4 3 0 5 2 11 7 14 9 6 20 5 31 5 8 0 18 0 25-6 4-3 5-8 4-13-1-4-5-6-9-7-18-6-38-4-56-10-7-3-14-7-17-15-4-11-2-24 6-31.7 8-8.1 20-11.2 31-12.3z"/>
</g>
</svg>