<?xml version="1.0" encoding="UTF-8" standalone="no"?>
<svg xmlns="http://www.w3.org/2000/svg" viewBox="0 0 410.9 410.9">
<path d="m334 87.9c-9.3-36.5-69.8-48.5-127-28.1-34.1 12.1-71 31.1-97.5 55.9-31.5 29.5-36.6 55.2-34.5 65.9 7.3 37.9 59.2 62.6 80.5 81v0.1c-6.3 3.1-52.3 26.4-63.1 50.2-11.4 25.1 1.8 43.1 10.5 45.6 27 7.5 54.7-6 69.6-28.2 14.4-21.4 13.2-49.1 6.9-62.9 8.6-2.3 18.7-3.3 31.4-1.8 36 4.2 43.1 26.7 41.8 36.1-1.4 9.4-8.9 14.6-11.4 16.2s-3.3 2.1-3.1 3.3c0.3 1.7 1.5 1.6 3.6 1.3 3-0.5 18.9-7.7 19.6-25 0.9-22.1-20.3-46.8-57.7-46.1-15.4 0.3-25.1 1.7-32.1 4.3-0.5-0.6-1-1.2-1.6-1.8-23.2-24.7-66-42.2-64.1-75.4 0.7-12.1 4.9-43.9 82.2-82.4 63.4-31.6 114-22.9 123-3.6 12.5 27.5-27.1 78.7-93 86.1-25.1 2.8-38.3-6.9-41.6-10.5-3.5-3.8-4-4-5.3-3.3-2.1 1.2-0.8 4.5 0 6.5 2 5.1 10 14.2 23.8 18.7 12.1 4 41.5 6.2 77.2-7.6 39-16 70-59 61-95.1zm-169 186c3 11.1 2.7 21.4-0.4 30.7-0.3 1-0.7 2.1-1.1 3.1s-0.9 2-1.3 3c-2.4 4.9-5.6 9.6-9.5 13.8-11.9 13-28.6 17.9-35.8 13.8-7.7-4.5-3.9-22.8 10-37.5 14.9-15.7 36.3-25.9 36.3-25.9v-0.1c-1-1 0-2 1-2z" fill="#fff"/>
</svg>