<?xml version="1.0" encoding="UTF-8" standalone="no"?>
<svg preserveAspectRatio="xMinYMin meet" xmlns="http://www.w3.org/2000/svg" xmlns:xlink="http://www.w3.org/1999/xlink" version="1.1" viewBox="0 0 256 256">
<path d="m96.4 7.38c32.6-8.27 67.6-3.45 96.6 14.1 36 21.4 59 62 60 104 1 41-21 83-56 106-40 27-94 28-134 2-41-24-64.8-73-58.7-121 4.93-49.5 43.5-93.5 92.1-106v0.38z" fill="#FFF"/>
<path d="m91.5 27.8c60.5-24.4 136 20.7 142 86.2 9 59-39 118-99 120-56.7 6-112-42-113-99-4.3-46.2 26-92 69.5-107v-0.2z" fill="#008080"/>
<path d="m97.6 122c27.4-22.6 54.4-45.7 82.4-67.4-15 22.5-30 44.7-45 67.4h-37.4z" fill="#FFF"/>
<path d="m121 134h37c-27 23-54 46-81.6 67 14.6-22 29.6-44 44.6-67z" fill="#FFF"/>
</svg>